<svg width="331" height="72" viewBox="0 0 331 72" fill="none" xmlns="http://www.w3.org/2000/svg">
<path d="M34.7606 33.0619C34.7606 37.5914 33.1973 40.9067 30.0739 43.0079C26.9505 45.109 22.6129 46.1596 17.0643 46.1596H0.0222168V0.953064H16.0484C21.858 0.953064 26.0226 1.79605 28.5358 3.48516C31.049 5.17427 32.304 7.84477 32.304 11.5061C32.304 14.315 31.6215 16.5923 30.2564 18.3349C28.8913 20.0775 26.7555 21.2413 23.8491 21.8295C27.652 22.3516 30.42 23.5501 32.1562 25.4216C33.8925 27.2963 34.7606 29.8441 34.7606 33.0651V33.0619ZM22.962 13.5286C22.962 11.808 22.3267 10.6159 21.0622 9.95223C19.7946 9.28853 17.8287 8.95512 15.1645 8.95512H9.26674V18.6557H14.9034C17.6337 18.6557 19.6593 18.2751 20.9836 17.5139C22.3047 16.7527 22.9652 15.4222 22.9652 13.5286H22.962ZM25.3211 32.2473C25.3211 30.2216 24.6323 28.7904 23.2577 27.9506C21.88 27.1139 19.3039 26.6924 15.5231 26.6924H9.26356V37.994H13.9503C17.555 37.994 20.0399 37.821 21.4051 37.4719C22.7702 37.1227 23.7641 36.5345 24.3869 35.7073C25.0098 34.88 25.3211 33.7256 25.3211 32.2441V32.2473Z" fill="white"/>
<path d="M38.1262 46.1628L53.1364 0.953064H65.1646L80.2062 46.1628H70.7352L67.7187 36.9843H50.252L47.3015 46.1628H38.1262ZM52.8721 28.9162H65.0954L58.9995 10.2322L52.8721 28.9162Z" fill="white"/>
<path d="M111.717 46.1628L95.2006 13.8557V46.1628H86.1543V0.953064H98.1479L113.517 31.4326V0.953064H122.594V46.1628H111.714H111.717Z" fill="white"/>
<path d="M156.861 46.1628L144.311 27.2806L141.558 30.448V46.1596H132.317V0.953064H141.558V18.5928L156.405 0.953064H167.187L150.277 20.4235L168.398 46.1659H156.864L156.861 46.1628Z" fill="white"/>
<path d="M174.362 46.1628V0.953064H183.604V37.7361H202.678V46.1628H174.362Z" fill="white"/>
<path d="M208.601 46.1628V0.953064H238.061V9.08722H217.842V18.7249H234.884V26.8905H217.842V37.7361H238.061V46.1628H208.601Z" fill="white"/>
<path d="M279.226 33.0619C279.226 37.5914 277.735 41.064 274.753 43.4828C271.771 45.9017 267.374 47.1096 261.564 47.1096C257.544 47.1096 254.053 46.4459 251.093 45.1185C248.133 43.7911 245.723 41.6459 243.868 38.6829L250.98 33.2601C252.027 34.7416 253.021 35.852 253.961 36.5911C254.902 37.3303 256.015 37.9091 257.305 38.3211C258.595 38.7363 260.079 38.9408 261.762 38.9408C264.275 38.9408 266.235 38.5099 267.644 37.6512C269.053 36.7925 269.758 35.4776 269.758 33.7162C269.758 32.7159 269.513 31.8761 269.022 31.1998C268.531 30.5235 267.792 29.9416 266.811 29.4509C265.829 28.9603 264.124 28.4004 261.699 27.7681C259.34 27.1359 257.116 26.5005 255.031 25.8557C252.945 25.214 251.143 24.3805 249.624 23.3582C248.105 22.3359 246.909 21.0494 246.035 19.5019C245.16 17.9574 244.723 16.0072 244.723 13.6544C244.723 9.36404 246.176 6.01727 249.083 3.61099C251.989 1.20472 256.151 0 261.567 0C269.409 0 274.961 2.67993 278.216 8.03665L271.17 13.5255C269.925 11.6099 268.528 10.2385 266.974 9.40807C265.424 8.58082 263.577 8.16562 261.435 8.16562C259.293 8.16562 257.55 8.55251 256.207 9.32629C254.864 10.1001 254.191 11.3142 254.191 12.9687C254.191 14.4282 254.889 15.5449 256.289 16.3155C257.686 17.0893 260.123 17.8662 263.596 18.6494C265.518 19.1496 267.418 19.6906 269.299 20.2662C271.177 20.845 272.853 21.6439 274.328 22.6662C275.804 23.6885 276.989 25.0284 277.886 26.6829C278.782 28.3375 279.229 30.4606 279.229 33.0525L279.226 33.0619Z" fill="white"/>
<path d="M319.831 33.0619C319.831 37.5914 318.34 41.064 315.358 43.4828C312.376 45.9017 307.978 47.1096 302.169 47.1096C298.149 47.1096 294.657 46.4459 291.698 45.1185C288.738 43.7911 286.328 41.6459 284.472 38.6829L291.584 33.2601C292.632 34.7416 293.626 35.852 294.566 36.5911C295.507 37.3303 296.62 37.9091 297.91 38.3211C299.199 38.7363 300.684 38.9408 302.367 38.9408C304.88 38.9408 306.84 38.5099 308.249 37.6512C309.658 36.7925 310.363 35.4776 310.363 33.7162C310.363 32.7159 310.117 31.8761 309.627 31.1998C309.136 30.5235 308.397 29.9416 307.415 29.4509C306.434 28.9603 304.729 28.4004 302.304 27.7681C299.945 27.1359 297.721 26.5005 295.636 25.8557C293.55 25.214 291.748 24.3805 290.229 23.3582C288.709 22.3359 287.514 21.0494 286.64 19.5019C285.765 17.9574 285.328 16.0072 285.328 13.6544C285.328 9.36404 286.781 6.01727 289.688 3.61099C292.594 1.20472 296.755 0 302.172 0C310.014 0 315.565 2.67993 318.821 8.03665L311.775 13.5255C310.529 11.6099 309.133 10.2385 307.579 9.40807C306.028 8.58082 304.182 8.16562 302.04 8.16562C299.898 8.16562 298.155 8.55251 296.812 9.32629C295.469 10.1001 294.796 11.3142 294.796 12.9687C294.796 14.4282 295.494 15.5449 296.894 16.3155C298.29 17.0893 300.728 17.8662 304.201 18.6494C306.123 19.1496 308.022 19.6906 309.903 20.2662C311.781 20.845 313.458 21.6439 314.933 22.6662C316.408 23.6885 317.594 25.0284 318.491 26.6829C319.387 28.3375 319.834 30.4606 319.834 33.0525L319.831 33.0619Z" fill="white"/>
<path d="M319.805 62.2896H0V71.0434H319.805V62.2896Z" fill="#ED1C24"/>
<path d="M326.348 10.1598C325.499 10.1598 324.715 9.95222 323.998 9.53701C323.281 9.12181 322.718 8.55563 322.303 7.83217C321.891 7.11186 321.683 6.32864 321.683 5.48252C321.683 4.63639 321.888 3.84688 322.296 3.13286C322.705 2.41884 323.272 1.85895 323.998 1.4469C324.722 1.03484 325.505 0.830383 326.348 0.830383C327.191 0.830383 327.983 1.03484 328.697 1.44375C329.411 1.85266 329.971 2.41884 330.383 3.14544C330.795 3.8689 331 4.64897 331 5.48252C331 6.31606 330.795 7.12445 330.383 7.8479C329.971 8.57136 329.408 9.1344 328.691 9.54645C327.974 9.95536 327.194 10.1598 326.348 10.1598ZM326.348 9.4112C327.04 9.4112 327.688 9.23505 328.292 8.8859C328.896 8.53676 329.371 8.05865 329.717 7.45157C330.063 6.8445 330.236 6.1871 330.236 5.48252C330.236 4.77793 330.059 4.12053 329.71 3.51346C329.361 2.90639 328.886 2.43143 328.285 2.08543C327.685 1.73942 327.04 1.56642 326.348 1.56642C325.656 1.56642 324.998 1.74257 324.398 2.09172C323.797 2.44086 323.322 2.91897 322.976 3.52604C322.63 4.13311 322.454 4.78422 322.454 5.48566C322.454 6.1871 322.627 6.84765 322.97 7.44843C323.312 8.05236 323.787 8.53047 324.388 8.88276C324.992 9.23505 325.643 9.41434 326.348 9.41434V9.4112ZM324.696 7.85105V2.92526H326.291C326.873 2.92526 327.323 3.02591 327.634 3.23037C327.946 3.43168 328.103 3.80599 328.103 4.35015C328.103 4.77793 328.015 5.10192 327.836 5.3221C327.656 5.54228 327.417 5.69641 327.118 5.78448L328.468 7.8479H327.518L326.26 5.90086H325.502V7.8479H324.696V7.85105ZM325.502 5.20886H326.25C326.647 5.20886 326.917 5.14595 327.052 5.02328C327.191 4.90061 327.257 4.68671 327.257 4.38475C327.257 4.10166 327.188 3.9035 327.046 3.78711C326.905 3.67073 326.653 3.61411 326.291 3.61411H325.502V5.20886Z" fill="black"/>
</svg>
