<svg width="51" height="49" viewBox="0 0 51 49" fill="none" xmlns="http://www.w3.org/2000/svg">
<path d="M17.0583 39.4547C17.0583 39.6574 16.8218 39.8195 16.5236 39.8195C16.1843 39.8499 15.9478 39.6878 15.9478 39.4547C15.9478 39.2521 16.1843 39.09 16.4825 39.09C16.7909 39.0596 17.0583 39.2217 17.0583 39.4547ZM13.8605 38.9988C13.7885 39.2014 13.9942 39.4345 14.3026 39.4953C14.57 39.5966 14.8784 39.4953 14.9401 39.2926C15.0018 39.09 14.8065 38.8569 14.498 38.7657C14.2306 38.6948 13.9325 38.7961 13.8605 38.9988ZM18.4052 38.8265C18.1071 38.8975 17.9014 39.09 17.9323 39.323C17.9631 39.5257 18.2304 39.6574 18.5389 39.5864C18.8371 39.5155 19.0427 39.323 19.0119 39.1204C18.981 38.9279 18.7034 38.7961 18.4052 38.8265ZM25.171 0C10.9095 0 0 10.6692 0 24.7225C0 35.9591 7.17702 45.5746 17.4284 48.9587C18.7446 49.1918 19.2073 48.3913 19.2073 47.7327C19.2073 47.1045 19.1764 43.6393 19.1764 41.5116C19.1764 41.5116 11.9788 43.0314 10.4673 38.4922C10.4673 38.4922 9.29516 35.5437 7.60887 34.7838C7.60887 34.7838 5.25423 33.193 7.77339 33.2234C7.77339 33.2234 10.3337 33.4261 11.7423 35.8375C13.9942 39.7486 17.7677 38.6239 19.2381 37.9552C19.4746 36.334 20.1429 35.2093 20.8833 34.5406C15.1355 33.9124 9.33629 33.0917 9.33629 23.3446C9.33629 20.5582 10.1177 19.16 11.7629 17.3767C11.4956 16.7181 10.6216 14.0027 12.0302 10.4969C14.1792 9.83835 19.125 13.2326 19.125 13.2326C21.1815 12.6652 23.3921 12.3714 25.5823 12.3714C27.7724 12.3714 29.9831 12.6652 32.0395 13.2326C32.0395 13.2326 36.9853 9.82822 39.1343 10.4969C40.5429 14.0128 39.669 16.7181 39.4016 17.3767C41.0468 19.1701 42.0544 20.5683 42.0544 23.3446C42.0544 33.1221 35.9982 33.9023 30.2504 34.5406C31.1964 35.3411 31.9984 36.8609 31.9984 39.2419C31.9984 42.6565 31.9675 46.8816 31.9675 47.7125C31.9675 48.371 32.4405 49.1715 33.7464 48.9385C44.0286 45.5746 51 35.9591 51 24.7225C51 10.6692 39.4325 0 25.171 0ZM9.99435 34.9459C9.86069 35.0472 9.89153 35.2803 10.0663 35.4728C10.2308 35.6349 10.4673 35.7058 10.601 35.5741C10.7347 35.4728 10.7038 35.2397 10.529 35.0472C10.3645 34.8851 10.128 34.8142 9.99435 34.9459ZM8.88387 34.1252C8.8119 34.2569 8.91472 34.419 9.12036 34.5204C9.28488 34.6217 9.49052 34.5913 9.5625 34.4494C9.63448 34.3177 9.53165 34.1556 9.32601 34.0543C9.12036 33.9935 8.95585 34.0239 8.88387 34.1252ZM12.2153 37.7323C12.0508 37.864 12.1125 38.1679 12.349 38.3605C12.5855 38.5935 12.8837 38.6239 13.0173 38.4618C13.151 38.3301 13.0893 38.0261 12.8837 37.8336C12.6575 37.6005 12.349 37.5701 12.2153 37.7323ZM11.0431 36.2428C10.8786 36.3441 10.8786 36.6076 11.0431 36.8406C11.2077 37.0737 11.4853 37.175 11.619 37.0737C11.7835 36.9419 11.7835 36.6785 11.619 36.4455C11.475 36.2124 11.2077 36.1111 11.0431 36.2428Z" fill="white"/>
</svg>
