<?xml version="1.0" standalone="no"?>
<!DOCTYPE svg PUBLIC "-//W3C//DTD SVG 20010904//EN"
 "http://www.w3.org/TR/2001/REC-SVG-20010904/DTD/svg10.dtd">
<svg version="1.0" xmlns="http://www.w3.org/2000/svg"
 width="576.000000pt" height="576.000000pt" viewBox="0 0 576.000000 576.000000"
 preserveAspectRatio="xMidYMid meet">
<metadata>
Created by potrace 1.14, written by Peter Selinger 2001-2017
</metadata>
<g transform="translate(0.000000,576.000000) scale(0.100000,-0.100000)"
fill="#000000" stroke="none">
<path d="M2807 5684 c-1 -1 -49 -5 -107 -8 -137 -9 -230 -21 -382 -51 -184
-35 -474 -132 -621 -207 l-39 -19 -36 35 c-133 134 -357 132 -493 -4 -98 -98
-127 -225 -83 -367 l16 -51 -43 -39 c-149 -132 -333 -340 -437 -495 -73 -109
-133 -209 -137 -229 -6 -29 31 -68 61 -64 32 3 32 3 96 107 116 190 239 343
415 516 l115 113 32 -21 c72 -49 119 -64 204 -66 71 -1 93 2 144 24 76 33 146
100 182 175 23 47 29 72 30 135 0 42 -1 88 -4 101 -4 21 2 28 45 51 119 61
425 164 555 186 14 3 48 9 75 14 28 5 66 12 85 15 19 3 46 7 60 10 173 32 598
21 815 -21 11 -2 33 -7 48 -9 15 -3 56 -12 90 -21 34 -8 70 -17 80 -19 55 -13
205 -62 290 -96 110 -44 334 -153 358 -175 8 -8 19 -14 23 -14 12 0 235 -150
260 -174 32 -33 87 -56 106 -46 58 31 51 71 -22 130 -61 49 -205 150 -214 150
-3 0 -19 10 -36 21 -64 46 -308 169 -418 211 -36 14 -74 29 -85 33 -11 5 -22
9 -25 10 -3 0 -34 11 -70 23 -67 22 -296 81 -340 88 -14 2 -38 5 -55 8 -149
23 -161 24 -265 32 -84 6 -269 11 -273 8z m-1324 -293 c141 -68 170 -259 57
-371 -97 -97 -235 -95 -333 6 -76 79 -83 221 -15 304 21 26 81 67 113 77 46
15 129 8 178 -16z"/>
<path d="M3405 4945 c-95 -29 -124 -41 -161 -68 -23 -18 -60 -58 -80 -90 l-38
-57 -91 6 c-135 10 -335 4 -418 -12 -12 -2 -35 -6 -52 -9 -67 -11 -81 -14
-112 -24 -18 -5 -33 -8 -33 -6 0 11 -277 -93 -365 -137 -485 -242 -834 -671
-974 -1201 -11 -40 -22 -88 -25 -107 -3 -19 -8 -46 -11 -60 -28 -141 -27 -445
4 -610 6 -30 13 -68 16 -85 7 -43 23 -97 57 -200 94 -278 239 -509 457 -726
80 -79 233 -204 284 -230 12 -7 24 -15 27 -18 34 -41 397 -199 521 -227 11 -2
29 -6 42 -10 12 -3 31 -6 42 -8 11 -2 29 -6 40 -9 11 -3 41 -9 67 -12 26 -3
64 -8 85 -11 78 -12 373 -6 458 10 32 6 98 18 125 22 14 3 43 10 65 16 22 6
45 11 50 12 96 21 140 58 124 105 -14 40 -49 44 -139 16 -41 -14 -90 -27 -109
-30 -19 -3 -37 -8 -41 -10 -3 -2 -33 -7 -65 -10 -33 -4 -69 -9 -80 -12 -38 -9
-312 -10 -376 -2 -95 13 -131 19 -159 24 -14 3 -36 7 -49 10 -46 9 -226 67
-235 76 -6 5 -16 9 -24 9 -34 0 -348 173 -382 210 -3 3 -25 21 -50 40 -170
131 -365 360 -445 525 -11 22 -25 47 -31 55 -29 40 -121 295 -138 380 -2 14
-10 50 -16 80 -16 79 -22 119 -26 170 -5 66 -5 249 0 295 3 22 8 63 11 92 27
266 170 606 354 843 64 82 276 284 352 335 40 28 77 53 80 58 6 9 258 136 316
159 50 21 252 75 308 83 22 4 47 8 55 10 57 16 282 23 413 14 65 -4 72 -11 76
-73 4 -55 42 -136 87 -185 106 -118 265 -148 420 -80 24 11 44 24 44 29 0 6 5
10 11 10 5 0 25 16 44 37 l33 36 54 -33 c207 -131 395 -317 538 -529 115 -172
217 -432 255 -654 3 -15 8 -39 11 -54 13 -63 12 -389 -2 -482 -21 -136 -70
-317 -111 -411 -9 -19 -25 -55 -36 -80 -11 -25 -43 -84 -71 -132 -97 -166 -99
-176 -44 -204 28 -15 30 -14 61 19 18 19 37 41 44 49 20 26 121 221 146 283
13 33 28 69 32 80 5 11 9 23 10 28 2 4 3 8 5 10 1 1 3 9 6 17 78 291 93 394
89 615 -2 88 -6 178 -9 200 -7 59 -26 168 -31 175 -2 4 -7 22 -10 41 -21 121
-139 400 -228 539 -116 182 -289 372 -442 485 -44 33 -81 63 -83 68 -2 4 -10
7 -18 7 -8 0 -14 5 -14 10 0 6 -5 10 -10 10 -6 0 -28 11 -49 25 l-39 24 4 71
c12 202 -132 365 -331 375 -33 2 -64 2 -70 0z m152 -153 c87 -45 128 -114 127
-212 -1 -88 -39 -150 -119 -192 -45 -24 -141 -33 -184 -17 -91 35 -152 115
-157 209 -8 169 181 289 333 212z"/>
<path d="M5272 4204 c-12 -8 -22 -25 -22 -38 0 -13 24 -74 54 -137 56 -118
125 -299 152 -398 23 -81 62 -247 68 -290 21 -147 26 -187 32 -272 10 -149 4
-413 -10 -489 -3 -14 -8 -45 -11 -70 -3 -25 -7 -56 -10 -70 -2 -14 -6 -38 -9
-55 -3 -16 -9 -45 -15 -63 -5 -18 -10 -35 -10 -37 1 -13 -15 -77 -34 -140 -11
-38 -21 -74 -23 -80 -6 -27 -76 -210 -83 -219 -5 -6 -9 -15 -9 -19 0 -13 -24
-71 -37 -87 -6 -8 -18 -31 -26 -50 -15 -38 -94 -179 -157 -278 -7 -10 -18 -11
-58 -2 -96 23 -194 9 -269 -38 -61 -39 -109 -92 -140 -157 -25 -52 -29 -72
-28 -145 0 -63 6 -97 21 -132 l21 -47 -56 -48 c-31 -26 -79 -65 -107 -85 -28
-21 -56 -42 -63 -48 -83 -70 -394 -243 -540 -300 -43 -17 -87 -35 -98 -40 -21
-9 -153 -53 -170 -56 -5 -1 -35 -9 -66 -18 -58 -17 -68 -20 -154 -37 -183 -36
-355 -53 -540 -52 -114 0 -314 11 -325 18 -3 2 -28 6 -56 9 -27 3 -60 8 -74
11 -14 3 -38 8 -55 11 -159 28 -490 132 -583 184 -9 5 -48 24 -87 43 -90 43
-186 96 -206 113 -8 8 -19 14 -23 14 -17 0 -254 173 -326 237 -14 12 -47 42
-74 66 l-49 44 33 66 c61 123 48 262 -34 370 -37 49 -119 107 -176 125 -53 16
-146 15 -205 -3 -27 -8 -50 -13 -51 -12 -1 1 -25 43 -53 93 -117 206 -234 522
-276 744 -33 172 -44 264 -50 415 -7 152 -11 171 -38 180 -30 10 -49 6 -71
-13 -17 -16 -18 -29 -12 -167 3 -82 11 -179 17 -215 6 -36 12 -78 14 -95 4
-36 15 -100 22 -129 2 -11 9 -39 13 -61 5 -22 21 -80 36 -130 15 -49 32 -108
39 -130 6 -22 15 -49 20 -60 4 -11 17 -42 27 -70 39 -100 103 -235 166 -349
l49 -89 -23 -24 c-24 -26 -63 -102 -72 -143 -13 -53 -3 -165 18 -214 79 -186
296 -271 472 -186 l42 20 30 -27 c16 -16 39 -37 51 -48 47 -43 83 -73 165
-135 47 -36 87 -67 90 -70 23 -24 238 -154 349 -210 89 -45 252 -118 276 -124
6 -2 17 -6 25 -9 158 -60 410 -124 565 -143 22 -3 51 -7 65 -9 131 -24 544
-24 680 0 14 2 47 6 73 9 27 3 52 8 55 10 4 2 29 7 56 10 27 4 52 9 55 11 3 1
22 6 41 9 121 19 395 116 585 206 204 96 506 294 622 406 l33 32 74 -37 c77
-39 79 -40 149 -42 123 -5 240 57 306 160 87 137 70 314 -41 435 -15 17 -16
22 -4 40 34 53 96 157 130 221 70 130 186 409 201 484 2 9 8 27 13 41 5 14 10
27 10 30 0 3 3 12 6 20 4 14 22 92 30 135 3 11 10 43 16 70 7 28 13 61 14 75
6 56 18 146 23 170 9 46 11 454 2 530 -4 41 -11 99 -14 128 -6 57 -48 266 -64
320 -5 18 -10 33 -10 35 1 6 -13 64 -18 77 -4 8 -7 17 -8 20 -51 168 -176 463
-207 487 -25 20 -54 23 -76 7z m-4435 -2812 c91 -47 133 -120 129 -224 -2 -57
-7 -74 -36 -117 -111 -162 -356 -129 -415 57 -63 193 144 375 322 284z m4238
-114 c51 -26 77 -52 106 -107 46 -88 22 -213 -53 -276 -149 -125 -377 -31
-384 158 -4 95 30 163 105 213 69 45 151 49 226 12z"/>
<path d="M291 3922 c-11 -10 -37 -71 -61 -142 -52 -161 -58 -180 -64 -210 -2
-14 -11 -54 -20 -90 -20 -90 -31 -152 -41 -242 -5 -50 -3 -60 15 -78 32 -32
86 -17 94 26 6 29 17 101 21 127 7 53 17 105 27 142 5 22 12 51 15 65 4 22 21
86 55 200 5 19 15 41 20 48 6 6 8 12 5 12 -4 0 2 19 12 43 20 47 20 71 -3 96
-20 22 -51 24 -75 3z"/>
<path d="M4089 1637 c-94 -92 -222 -189 -322 -248 -42 -24 -79 -51 -82 -61
-10 -28 5 -65 32 -77 23 -11 35 -7 107 35 125 73 265 182 373 291 51 52 60 76
39 108 -29 44 -62 33 -147 -48z"/>
</g>
</svg>
