<svg width="312" height="36" viewBox="0 0 312 36" fill="none" xmlns="http://www.w3.org/2000/svg">
<path d="M3.69884 9.64045C3.25632 9.45017 2.84595 9.19271 2.48215 8.87708C0.904546 11.5613 0.0500936 14.6087 0.0021304 17.7218C-0.045753 20.8351 0.714273 23.9076 2.2086 26.639C2.556 26.2957 2.95128 26.0045 3.38193 25.775C2.05213 23.2801 1.3827 20.486 1.43831 17.659C1.49359 14.8322 2.27195 12.0666 3.69884 9.6257V9.64045ZM17.9883 2.20609e-05C15.1277 -0.0044779 12.3081 0.679509 9.76738 1.99443C10.073 2.37596 10.316 2.80377 10.4872 3.26144C12.8068 2.06544 15.3784 1.4409 17.9883 1.43992C21.3552 1.43831 24.6425 2.46337 27.4123 4.37837C30.1818 6.29337 32.3016 9.00752 33.4893 12.1588C34.6768 15.3097 34.8757 18.7479 34.0594 22.0156C33.2428 25.2825 31.4499 28.223 28.9197 30.4448C26.3893 32.6665 23.2421 34.0637 19.8972 34.4504C16.5528 34.8371 13.1698 34.1945 10.1993 32.609C9.97431 33.039 9.68798 33.434 9.34992 33.7825C12.5691 35.5484 16.2516 36.2871 19.9027 35.8994C23.5537 35.5121 26.9991 34.0168 29.7758 31.6146C32.5531 29.2123 34.5291 26.0179 35.439 22.4604C36.3485 18.9026 36.1485 15.1516 34.8656 11.7108C33.5827 8.27001 31.2783 5.30423 28.2613 3.21084C25.2446 1.11769 21.6598 -0.00244656 17.9883 0.000762527L17.9883 2.20609e-05Z" fill="#FACC15"/>
<path d="M27.6056 22.8956C26.1286 25.8006 23.4185 27.8831 20.2312 28.5623C17.0442 29.2414 13.7206 28.4449 11.1881 26.3942C8.6551 24.3439 7.18321 21.2589 7.18321 17.9996C7.18321 14.7403 8.6551 11.6553 11.1881 9.60494C13.7208 7.55425 17.0444 6.75774 20.2312 7.43692C23.4185 8.11608 26.1286 10.1985 27.6056 13.1036C27.9919 13.0075 28.3884 12.9593 28.7863 12.9596C28.9062 12.9525 29.0264 12.9525 29.1463 12.9596C27.5983 9.53319 24.562 7.00879 20.9111 6.11263C17.26 5.21615 13.4001 6.04803 10.4422 8.36838C7.48407 10.6884 5.75641 14.2398 5.75641 17.9998C5.75641 21.7597 7.48407 25.3109 10.4422 27.6311C13.4001 29.9515 17.26 30.7834 20.9111 29.8869C24.5618 28.9907 27.598 26.4663 29.1463 23.0399C29.0264 23.047 28.9062 23.047 28.7863 23.0399C28.3885 23.0402 27.9919 22.992 27.6056 22.8959V22.8956Z" fill="#FACC15"/>
<path d="M7.78766 7.07732C7.24713 7.61731 6.51438 7.92041 5.7505 7.91975C5.48056 7.91975 5.21189 7.88343 4.95159 7.81175C4.48528 7.67804 4.05979 7.43087 3.71335 7.09176C3.01855 6.35667 2.7605 5.31105 3.03302 4.33713C3.30554 3.36289 4.06912 2.6034 5.04443 2.33598C6.01949 2.06855 7.06358 2.33244 7.79504 3.03089C7.83007 3.06336 7.86156 3.09968 7.88855 3.13889C8.22245 3.5021 8.45576 3.94663 8.56503 4.42779C8.77392 5.38566 8.48084 6.38394 7.78765 7.07726L7.78766 7.07732Z" fill="#FACC15"/>
<path d="M8.357 31.4565C8.15582 31.9046 7.83735 32.29 7.43566 32.5724C6.69009 33.105 5.73531 33.2513 4.8644 32.9655C3.99382 32.6801 3.3109 31.997 3.02551 31.1263C2.73981 30.2553 2.88604 29.3003 3.41854 28.5546C3.95939 27.805 4.82675 27.3605 5.75105 27.3596C6.73409 27.3609 7.64868 27.8639 8.17669 28.6935C8.70437 29.5234 8.77218 30.5651 8.35697 31.4564L8.357 31.4565Z" fill="#FACC15"/>
<path d="M31.6656 17.9997C31.664 18.5603 31.4992 19.108 31.191 19.576C30.8828 20.044 30.4451 20.412 29.9309 20.6347C29.571 20.7974 29.1809 20.8806 28.7862 20.8796C28.6593 20.8906 28.5317 20.8906 28.4048 20.8796C27.4818 20.7482 26.6797 20.178 26.2523 19.3493C25.8245 18.5207 25.8245 17.5362 26.2523 16.7078C26.6797 15.8792 27.4818 15.3087 28.4048 15.1772C28.5301 15.147 28.6577 15.1277 28.7862 15.1196C29.1809 15.1187 29.571 15.2019 29.9309 15.3646C30.4451 15.5873 30.8828 15.9553 31.191 16.4233C31.4992 16.8913 31.664 17.439 31.6656 17.9996V17.9997Z" fill="#FACC15"/>
<path d="M23.7472 17.9997C23.7459 18.4436 23.6928 18.8859 23.5887 19.3172C23.1542 21.1673 21.8354 22.6838 20.0636 23.3704C18.292 24.0569 16.2959 23.8255 14.7283 22.752C13.1606 21.6781 12.2236 19.9 12.2236 17.9997C12.2236 16.0994 13.1607 14.3214 14.7283 13.2475C16.2959 12.1739 18.2919 11.9425 20.0636 12.6291C21.8353 13.3156 23.1542 14.8321 23.5887 16.6822C23.6928 17.1136 23.7459 17.5558 23.7472 17.9998V17.9997Z" fill="#FACC15"/>
<path d="M60.596 28.168C59.14 28.168 57.74 27.9347 56.396 27.468C55.0707 26.9827 54.044 26.3667 53.316 25.62L54.128 24.024C54.8187 24.696 55.7427 25.2653 56.9 25.732C58.076 26.18 59.308 26.404 60.596 26.404C61.828 26.404 62.8267 26.2547 63.592 25.956C64.376 25.6387 64.9453 25.2187 65.3 24.696C65.6733 24.1733 65.86 23.5947 65.86 22.96C65.86 22.1947 65.636 21.5787 65.188 21.112C64.7587 20.6453 64.1893 20.2813 63.48 20.02C62.7707 19.74 61.9867 19.4973 61.128 19.292C60.2693 19.0867 59.4107 18.872 58.552 18.648C57.6933 18.4053 56.9 18.088 56.172 17.696C55.4627 17.304 54.884 16.7907 54.436 16.156C54.0067 15.5027 53.792 14.6533 53.792 13.608C53.792 12.6373 54.044 11.7507 54.548 10.948C55.0707 10.1267 55.864 9.47333 56.928 8.988C57.992 8.484 59.3547 8.232 61.016 8.232C62.1173 8.232 63.2093 8.39067 64.292 8.708C65.3747 9.00667 66.308 9.42667 67.092 9.968L66.392 11.62C65.552 11.06 64.656 10.6493 63.704 10.388C62.7707 10.1267 61.8653 9.996 60.988 9.996C59.812 9.996 58.8413 10.1547 58.076 10.472C57.3107 10.7893 56.7413 11.2187 56.368 11.76C56.0133 12.2827 55.836 12.88 55.836 13.552C55.836 14.3173 56.0507 14.9333 56.48 15.4C56.928 15.8667 57.5067 16.2307 58.216 16.492C58.944 16.7533 59.7373 16.9867 60.596 17.192C61.4547 17.3973 62.304 17.6213 63.144 17.864C64.0027 18.1067 64.7867 18.424 65.496 18.816C66.224 19.1893 66.8027 19.6933 67.232 20.328C67.68 20.9627 67.904 21.7933 67.904 22.82C67.904 23.772 67.6427 24.6587 67.12 25.48C66.5973 26.2827 65.7947 26.936 64.712 27.44C63.648 27.9253 62.276 28.168 60.596 28.168ZM83.1146 28.168C80.6132 28.168 78.6439 27.4493 77.2066 26.012C75.7692 24.5747 75.0506 22.4467 75.0506 19.628V8.4H77.1226V19.544C77.1226 21.8587 77.6452 23.5667 78.6906 24.668C79.7359 25.7693 81.2106 26.32 83.1146 26.32C85.0372 26.32 86.5212 25.7693 87.5666 24.668C88.6119 23.5667 89.1346 21.8587 89.1346 19.544V8.4H91.1506V19.628C91.1506 22.4467 90.4319 24.5747 88.9946 26.012C87.5759 27.4493 85.6159 28.168 83.1146 28.168ZM100.194 28V8.4H107.53C109.192 8.4 110.62 8.67067 111.814 9.212C113.009 9.73467 113.924 10.5 114.558 11.508C115.212 12.4973 115.538 13.7013 115.538 15.12C115.538 16.5013 115.212 17.696 114.558 18.704C113.924 19.6933 113.009 20.4587 111.814 21C110.62 21.5413 109.192 21.812 107.53 21.812H101.342L102.266 20.832V28H100.194ZM102.266 21L101.342 19.992H107.474C109.434 19.992 110.918 19.572 111.926 18.732C112.953 17.8733 113.466 16.6693 113.466 15.12C113.466 13.552 112.953 12.3387 111.926 11.48C110.918 10.6213 109.434 10.192 107.474 10.192H101.342L102.266 9.212V21ZM124.667 17.164H135.027V18.928H124.667V17.164ZM124.891 26.208H136.679V28H122.819V8.4H136.259V10.192H124.891V26.208ZM144.349 28V8.4H151.685C153.346 8.4 154.774 8.67067 155.969 9.212C157.164 9.73467 158.078 10.5 158.713 11.508C159.366 12.4973 159.693 13.7013 159.693 15.12C159.693 16.5013 159.366 17.696 158.713 18.704C158.078 19.6933 157.164 20.4587 155.969 21C154.774 21.5227 153.346 21.784 151.685 21.784H145.497L146.421 20.832V28H144.349ZM157.733 28L152.693 20.888H154.933L160.001 28H157.733ZM146.421 21L145.497 20.02H151.629C153.589 20.02 155.073 19.5907 156.081 18.732C157.108 17.8733 157.621 16.6693 157.621 15.12C157.621 13.552 157.108 12.3387 156.081 11.48C155.073 10.6213 153.589 10.192 151.629 10.192H145.497L146.421 9.212V21ZM175.895 28.168C174.421 28.168 173.058 27.9253 171.807 27.44C170.557 26.936 169.474 26.236 168.559 25.34C167.645 24.444 166.926 23.3893 166.403 22.176C165.899 20.9627 165.647 19.6373 165.647 18.2C165.647 16.7627 165.899 15.4373 166.403 14.224C166.926 13.0107 167.645 11.956 168.559 11.06C169.493 10.164 170.585 9.47333 171.835 8.988C173.086 8.484 174.449 8.232 175.923 8.232C177.342 8.232 178.677 8.47467 179.927 8.96C181.178 9.42667 182.233 10.136 183.091 11.088L181.775 12.404C180.973 11.5827 180.086 10.9947 179.115 10.64C178.145 10.2667 177.099 10.08 175.979 10.08C174.803 10.08 173.711 10.2853 172.703 10.696C171.695 11.088 170.818 11.6573 170.071 12.404C169.325 13.132 168.737 13.9907 168.307 14.98C167.897 15.9507 167.691 17.024 167.691 18.2C167.691 19.376 167.897 20.4587 168.307 21.448C168.737 22.4187 169.325 23.2773 170.071 24.024C170.818 24.752 171.695 25.3213 172.703 25.732C173.711 26.124 174.803 26.32 175.979 26.32C177.099 26.32 178.145 26.1333 179.115 25.76C180.086 25.3867 180.973 24.7893 181.775 23.968L183.091 25.284C182.233 26.236 181.178 26.9547 179.927 27.44C178.677 27.9253 177.333 28.168 175.895 28.168ZM190.308 28V8.4H192.38V26.208H203.356V28H190.308ZM217.137 28.168C214.636 28.168 212.667 27.4493 211.229 26.012C209.792 24.5747 209.073 22.4467 209.073 19.628V8.4H211.145V19.544C211.145 21.8587 211.668 23.5667 212.713 24.668C213.759 25.7693 215.233 26.32 217.137 26.32C219.06 26.32 220.544 25.7693 221.589 24.668C222.635 23.5667 223.157 21.8587 223.157 19.544V8.4H225.173V19.628C225.173 22.4467 224.455 24.5747 223.017 26.012C221.599 27.4493 219.639 28.168 217.137 28.168ZM239.621 28.168C238.165 28.168 236.765 27.9347 235.421 27.468C234.096 26.9827 233.069 26.3667 232.341 25.62L233.153 24.024C233.844 24.696 234.768 25.2653 235.925 25.732C237.101 26.18 238.333 26.404 239.621 26.404C240.853 26.404 241.852 26.2547 242.617 25.956C243.401 25.6387 243.97 25.2187 244.325 24.696C244.698 24.1733 244.885 23.5947 244.885 22.96C244.885 22.1947 244.661 21.5787 244.213 21.112C243.784 20.6453 243.214 20.2813 242.505 20.02C241.796 19.74 241.012 19.4973 240.153 19.292C239.294 19.0867 238.436 18.872 237.577 18.648C236.718 18.4053 235.925 18.088 235.197 17.696C234.488 17.304 233.909 16.7907 233.461 16.156C233.032 15.5027 232.817 14.6533 232.817 13.608C232.817 12.6373 233.069 11.7507 233.573 10.948C234.096 10.1267 234.889 9.47333 235.953 8.988C237.017 8.484 238.38 8.232 240.041 8.232C241.142 8.232 242.234 8.39067 243.317 8.708C244.4 9.00667 245.333 9.42667 246.117 9.968L245.417 11.62C244.577 11.06 243.681 10.6493 242.729 10.388C241.796 10.1267 240.89 9.996 240.013 9.996C238.837 9.996 237.866 10.1547 237.101 10.472C236.336 10.7893 235.766 11.2187 235.393 11.76C235.038 12.2827 234.861 12.88 234.861 13.552C234.861 14.3173 235.076 14.9333 235.505 15.4C235.953 15.8667 236.532 16.2307 237.241 16.492C237.969 16.7533 238.762 16.9867 239.621 17.192C240.48 17.3973 241.329 17.6213 242.169 17.864C243.028 18.1067 243.812 18.424 244.521 18.816C245.249 19.1893 245.828 19.6933 246.257 20.328C246.705 20.9627 246.929 21.7933 246.929 22.82C246.929 23.772 246.668 24.6587 246.145 25.48C245.622 26.2827 244.82 26.936 243.737 27.44C242.673 27.9253 241.301 28.168 239.621 28.168ZM257.778 28V10.192H250.89V8.4H266.738V10.192H259.85V28H257.778ZM274.696 17.164H285.056V18.928H274.696V17.164ZM274.92 26.208H286.708V28H272.848V8.4H286.288V10.192H274.92V26.208ZM294.379 28V8.4H301.715C303.376 8.4 304.804 8.67067 305.999 9.212C307.193 9.73467 308.108 10.5 308.743 11.508C309.396 12.4973 309.723 13.7013 309.723 15.12C309.723 16.5013 309.396 17.696 308.743 18.704C308.108 19.6933 307.193 20.4587 305.999 21C304.804 21.5227 303.376 21.784 301.715 21.784H295.527L296.451 20.832V28H294.379ZM307.763 28L302.723 20.888H304.963L310.031 28H307.763ZM296.451 21L295.527 20.02H301.659C303.619 20.02 305.103 19.5907 306.111 18.732C307.137 17.8733 307.651 16.6693 307.651 15.12C307.651 13.552 307.137 12.3387 306.111 11.48C305.103 10.6213 303.619 10.192 301.659 10.192H295.527L296.451 9.212V21Z" fill="#FACC15"/>
</svg>
