<svg width="298" height="70" viewBox="0 0 298 70" fill="none" xmlns="http://www.w3.org/2000/svg">
<g clip-path="url(#clip0_126_65)">
<path d="M113.016 34.6212L129.874 11.8939H116.796L106.288 27.1212L95.629 11.8939H81.9463L98.5774 35.1516L81.0391 58.9394H94.0415L105.381 42.8787L116.645 58.9394H130.403L113.016 34.6212Z" fill="white"/>
<path d="M166.614 44.6213H166.463L155.813 11.8939H137.963V59.0151H149V24.3182H149.302L160.944 59.0151H171.301L182.867 24.3182H183.169V59.0151H194.962V11.8939H177.349L166.614 44.6213Z" fill="white"/>
<path d="M202.824 11.8182V21.7424H219.421L219.38 58.9394H231.249L231.272 21.7424H247.804V11.8182H202.824Z" fill="white"/>
<path d="M278.95 11.8182H255.515V58.9394H267.383V44.2425H278.723C290.767 44.2425 298 38.4531 298 27.803C298 17.2821 290.753 11.8857 278.967 11.8857L278.95 11.8182ZM267.383 34.4696V21.7424H277.816C282.776 21.7424 286.055 23.4055 286.055 28.1818C286.055 32.8935 282.807 34.394 277.589 34.394L267.383 34.4696Z" fill="white"/>
<path d="M0 35C0 15.67 15.6366 0 34.9254 0C54.2016 0 69.0949 15.3788 69.5484 34.8484C69.5484 41.0606 67.4317 46.2878 62.14 51.2121C57.6683 55.3734 50.0446 55.9848 44.451 52.8788C40.4584 50.5708 37.3815 45.6555 34.7742 42.0454L29.936 49.4697H19.5038L29.3313 34.8479L19.8062 20.4545H30.5408L34.8499 27.8788L39.0831 20.4545H49.8936L40.0661 34.8484C40.0661 34.8484 44.753 42.0454 47.3231 44.8485C49.8936 47.6517 54.5805 47.7273 57.6041 44.697C60.9289 41.3652 61.673 38.7123 61.6866 34.8484C61.7384 19.8931 49.8846 7.87878 34.9254 7.87878C19.9787 7.87878 7.86199 20.0214 7.86199 35C7.86199 49.9786 19.9787 62.1213 34.9254 62.1213C36.9928 62.1213 38.9743 61.9472 40.8975 61.515L42.5608 69.1668C39.8241 69.7815 37.6133 70 34.9254 70C15.6366 70 0 54.3299 0 35Z" fill="#FC4F37"/>
</g>
<defs>
<clipPath id="clip0_126_65">
<rect width="298" height="70" fill="white"/>
</clipPath>
</defs>
</svg>
