<svg width="64" height="49" viewBox="0 0 64 49" fill="none" xmlns="http://www.w3.org/2000/svg">
<path d="M54.2621 4.13839C54.2443 4.10375 54.2148 4.07661 54.1789 4.06183C50.0294 2.1487 45.6505 0.784496 41.1518 0.00334619C41.1109 -0.0042894 41.0687 0.00121901 41.0311 0.019088C40.9935 0.036957 40.9625 0.0662768 40.9425 0.102878C40.3462 1.19038 39.8049 2.30743 39.3207 3.44976C34.4713 2.71004 29.5386 2.71004 24.6893 3.44976C24.2018 2.30453 23.6519 1.18721 23.0419 0.102878C23.021 0.0670722 22.9898 0.0384277 22.9525 0.0206747C22.9151 0.00292182 22.8733 -0.00311661 22.8325 0.00334619C18.3333 0.782856 13.9541 2.14717 9.80519 4.06194C9.76967 4.07707 9.7397 4.1029 9.71942 4.13587C1.42236 16.5869 -0.850522 28.7319 0.264476 40.7264C0.267612 40.7558 0.2766 40.7843 0.290904 40.8101C0.305209 40.8359 0.324538 40.8586 0.347741 40.8768C5.17904 44.4715 10.5829 47.2153 16.3288 48.9912C16.3692 49.0034 16.4124 49.0029 16.4526 48.9897C16.4927 48.9764 16.5279 48.9512 16.5533 48.9173C17.7874 47.2299 18.8809 45.4432 19.8226 43.5752C19.8356 43.5496 19.843 43.5215 19.8443 43.4927C19.8457 43.464 19.8409 43.4354 19.8305 43.4086C19.82 43.3819 19.804 43.3577 19.7835 43.3376C19.7631 43.3175 19.7386 43.302 19.7117 43.2921C17.9874 42.6291 16.318 41.8299 14.7193 40.9019C14.6902 40.8848 14.6658 40.8607 14.6483 40.8318C14.6307 40.803 14.6204 40.7702 14.6184 40.7364C14.6164 40.7026 14.6228 40.6688 14.6368 40.6381C14.6509 40.6073 14.6723 40.5805 14.6991 40.56C15.0346 40.3075 15.3703 40.0448 15.6906 39.7794C15.7191 39.7559 15.7535 39.7408 15.79 39.7358C15.8266 39.7309 15.8638 39.7363 15.8974 39.7514C26.3713 44.5549 37.7108 44.5549 48.0608 39.7514C48.0945 39.7353 48.1321 39.7292 48.1692 39.7337C48.2062 39.7382 48.2413 39.7532 48.2702 39.7769C48.5906 40.0423 48.9262 40.3075 49.2642 40.56C49.2911 40.5803 49.3127 40.6069 49.327 40.6376C49.3413 40.6682 49.3479 40.7019 49.3461 40.7357C49.3444 40.7695 49.3344 40.8024 49.317 40.8314C49.2996 40.8603 49.2754 40.8846 49.2465 40.9019C47.6514 41.8377 45.9805 42.6364 44.2517 43.2896C44.2248 43.2999 44.2004 43.3157 44.1801 43.3361C44.1598 43.3565 44.144 43.381 44.1337 43.4079C44.1234 43.4349 44.1189 43.4637 44.1205 43.4925C44.1221 43.5214 44.1297 43.5495 44.1428 43.5752C45.1004 45.4328 46.1923 47.2173 47.4097 48.9143C47.4344 48.9492 47.4694 48.9753 47.5097 48.989C47.55 49.0028 47.5935 49.0034 47.6342 48.9909C53.3904 47.221 58.8037 44.4769 63.641 40.8768C63.6646 40.8595 63.6842 40.8374 63.6986 40.8119C63.7129 40.7864 63.7217 40.7581 63.7243 40.7289C65.0592 26.862 61.4895 14.8166 54.2621 4.13839ZM21.3868 33.423C18.2334 33.423 15.6351 30.515 15.6351 26.9437C15.6351 23.3724 18.183 20.4642 21.3868 20.4642C24.6157 20.4642 27.1889 23.3976 27.1385 26.9435C27.1385 30.515 24.5904 33.423 21.3868 33.423ZM42.6528 33.423C39.4994 33.423 36.9011 30.515 36.9011 26.9437C36.9011 23.3724 39.449 20.4642 42.6528 20.4642C45.8818 20.4642 48.4549 23.3976 48.4045 26.9435C48.4045 30.515 45.8818 33.423 42.6528 33.423Z" fill="white"/>
</svg>
