<svg width="47" height="50" viewBox="0 0 47 50" fill="none" xmlns="http://www.w3.org/2000/svg">
<path d="M46.9982 16.4162C46.9982 5.56972 39.8346 2.38942 39.8346 2.38942C32.8049 -0.813191 14.1352 -0.779714 7.17293 2.38942C7.17293 2.38942 0.00821887 5.56972 0.00821887 16.4162C0.00821887 29.3271 -0.733889 45.3625 11.8853 48.6767C16.4403 49.8707 20.3543 50.1273 23.5038 49.9488C29.2169 49.6363 32.4226 47.929 32.4226 47.929L32.2314 43.8114C32.2314 43.8114 28.1487 45.0835 23.56 44.9384C19.0163 44.7822 14.2274 44.4474 13.482 38.9126C13.4128 38.3984 13.379 37.8802 13.3808 37.3615C23.009 39.6937 31.2195 38.377 33.4795 38.1092C39.7897 37.3615 45.2858 33.5005 45.9863 29.9743C47.0882 24.4171 46.9982 16.4162 46.9982 16.4162ZM38.5517 30.3872H33.3086V17.6437C33.3086 12.0977 26.1124 11.8857 26.1124 18.4136V25.388H20.903V18.4125C20.903 11.8846 13.7068 12.0966 13.7068 17.6426V30.3861H8.4525C8.4525 16.761 7.86781 13.882 10.5225 10.8579C13.4347 7.633 19.4975 7.42098 22.1972 11.5386L23.5015 13.7146L24.8058 11.5386C27.5168 7.39866 33.5897 7.65532 36.4805 10.8579C39.1465 13.9043 38.5494 16.7722 38.5494 30.3861L38.5517 30.3872Z" fill="white"/>
</svg>
