<svg width="368" height="36" viewBox="0 0 368 36" fill="none" xmlns="http://www.w3.org/2000/svg">
<path d="M26.2035 22.1722C25.6276 23.324 25.0517 24.4758 24.1878 25.3396C23.324 26.2035 22.4601 26.7794 21.3083 27.3553C20.1565 27.9312 19.0047 28.2191 17.565 28.2191C16.1252 28.2191 14.9734 27.9312 13.8216 27.3553C12.6698 26.7794 11.806 26.2035 10.9421 25.3396C10.0783 24.4758 9.50235 23.324 8.92645 22.1722C8.6385 21.0204 8.35055 19.5806 8.35055 18.1409C8.35055 16.7011 8.6385 15.5493 8.92645 14.1096C9.50235 12.9578 10.0783 12.0939 10.9421 11.2301C11.806 10.3662 12.6698 9.79031 13.8216 9.21441C14.9734 8.63851 16.1252 8.35056 17.565 8.35056C19.0047 8.35056 20.1565 8.63851 21.3083 9.21441C22.4601 9.79031 23.324 10.3662 24.1878 11.2301C25.0517 12.0939 25.6276 13.2457 26.2035 14.3975C26.4914 15.5493 26.7794 16.7011 26.7794 18.1409C26.7794 19.5806 26.4914 21.0204 26.2035 22.1722ZM30.2348 5.75901C28.5071 4.31926 26.7794 3.16746 24.4758 2.59156C22.4601 1.72771 20.1565 1.43976 17.565 1.43976C14.9734 1.43976 12.6698 1.72771 10.6542 2.59156C8.35055 3.16746 6.62285 4.31926 4.89515 5.75901C3.4554 7.19876 2.3036 9.21441 1.1518 11.2301C-4.29079e-07 13.2457 0 15.5493 0 18.1409C0 20.7324 0.5759 23.036 1.43975 25.0517C2.3036 27.0673 3.4554 29.083 5.1831 30.5227C6.62285 31.9625 8.6385 33.1143 10.6542 33.9781C12.6698 34.842 15.2614 35.1299 17.565 35.1299C20.1565 35.1299 22.4601 34.842 24.4758 33.9781C26.4914 33.1143 28.5071 31.9625 29.9468 30.5227C31.3866 29.083 32.8263 27.0673 33.6902 25.0517C34.554 23.036 35.1299 20.7324 35.1299 18.1409C35.1299 15.5493 34.554 13.2457 33.6902 11.2301C32.8263 9.21441 31.6745 7.19876 30.2348 5.75901Z" fill="white"/>
<path d="M53.8467 23.8999C53.8467 25.3396 53.5587 26.4914 52.6949 27.3553C52.119 28.2191 50.9672 28.795 49.8154 28.795C49.2395 28.795 48.6636 28.795 48.0877 28.5071C47.7997 28.2191 47.2238 27.9312 46.9359 27.3553C46.6479 26.7794 46.36 26.4914 46.36 25.9155C46.36 25.3396 46.36 24.7637 46.36 24.1878V11.806H38.8733V25.9155C38.8733 27.0673 39.1612 28.2191 39.4492 29.3709C39.7371 30.5227 40.313 31.3866 40.8889 32.2504C41.4648 33.1143 42.3287 33.6902 43.4805 34.2661C44.6323 34.842 45.7841 35.1299 47.2238 35.1299C48.0877 35.1299 48.6636 35.1299 49.5274 34.842C50.1033 34.554 50.9672 34.2661 51.5431 33.9781C52.119 33.6902 52.6949 33.1143 52.9828 32.8263C53.5587 32.2504 53.8467 31.9625 54.1346 31.3866V34.554H61.3334V11.806H53.8467V23.8999Z" fill="white"/>
<path d="M75.1551 5.75897H67.6684V11.8059H64.213V17.277H67.9564V26.7793C67.9564 27.9311 67.9564 29.0829 68.2443 30.2347C68.5323 31.0986 69.1082 31.9624 69.6841 32.8263C70.26 33.4022 71.1238 33.9781 72.2756 34.554C73.4274 35.1299 74.5792 35.1299 76.019 35.1299C76.8828 35.1299 77.4587 35.1299 78.3226 34.8419C79.1864 34.8419 79.7623 34.554 80.3382 34.266V28.795C80.0503 28.795 79.7623 29.0829 79.1864 29.0829C78.8985 29.0829 78.3226 29.0829 78.0346 29.0829C76.8828 29.0829 76.3069 28.795 75.731 28.2191C75.4431 27.6432 75.1551 26.7793 75.1551 25.9155V17.277H80.6262V11.8059H75.1551V5.75897Z" fill="white"/>
<path d="M91.568 0H84.0813V34.554H91.568V0Z" fill="white"/>
<path d="M103.662 1.43976C103.374 1.15181 102.798 0.863864 102.222 0.575914C101.646 0.287964 101.071 0.287964 100.495 0.287964C99.9188 0.287964 99.3429 0.287964 98.767 0.575914C98.1911 0.863864 97.9031 1.15181 97.3272 1.43976C97.0393 1.72771 96.7513 2.30361 96.4634 2.87951C96.1754 3.45541 96.1754 4.03131 96.1754 4.31926C96.1754 5.47106 96.4634 6.33491 97.3272 7.19876C98.1911 8.06261 99.0549 8.35056 100.495 8.35056C101.071 8.35056 101.646 8.35057 102.222 8.06262C102.798 7.77467 103.086 7.48671 103.662 7.19876C103.95 6.91081 104.238 6.33491 104.526 5.75901C104.814 5.18311 104.814 4.60721 104.814 4.03131C104.814 3.45541 104.814 2.87951 104.526 2.30361C104.526 2.30361 104.238 2.01566 103.662 1.43976Z" fill="white"/>
<path d="M104.526 11.806H97.0391V34.554H104.526V11.806Z" fill="white"/>
<path d="M115.756 20.4444C115.756 19.8685 116.044 19.2926 116.332 18.7167C116.62 18.1408 116.908 17.8529 117.484 17.277C117.772 16.989 118.348 16.7011 118.923 16.4131C119.499 16.1252 120.075 16.1252 120.939 16.1252C122.379 16.1252 123.531 16.4131 124.395 17.277C125.258 18.1408 125.546 19.0047 125.546 20.4444H115.756ZM129.002 14.3975C128.138 13.2457 126.698 12.3818 125.258 12.0939C123.819 11.518 122.379 11.23 120.651 11.23C118.923 10.9421 117.484 11.23 116.044 11.8059C114.604 12.3818 113.164 13.2457 112.301 14.1095C111.149 15.2613 110.285 16.4131 109.709 17.8529C109.133 19.2926 108.845 21.0203 108.845 23.036C108.845 25.0516 109.133 26.7793 109.709 28.2191C110.285 29.6588 111.149 31.0986 112.301 31.9624C113.452 33.1142 114.892 33.6901 116.332 34.266C117.772 34.8419 119.499 35.1299 121.227 35.1299C123.531 35.1299 125.546 34.8419 127.274 33.9781C129.002 33.1142 130.441 31.9624 131.593 30.5227L126.41 27.3552C125.834 27.9311 125.258 28.507 124.395 29.0829C123.531 29.6588 122.667 29.6588 121.515 29.6588C120.939 29.6588 120.075 29.6588 119.499 29.3709C118.923 29.0829 118.348 28.795 117.772 28.507C117.196 28.2191 116.908 27.6432 116.62 27.0673C116.332 26.4914 116.044 25.9155 116.044 25.3396H132.457C132.457 25.0516 132.457 24.7637 132.457 24.4757V23.3239C132.457 21.3083 132.169 19.5806 131.593 18.1408C130.729 16.7011 129.866 15.2613 129.002 14.3975Z" fill="white"/>
<path d="M149.446 11.23C148.007 11.23 146.855 11.518 145.703 12.3818C144.551 13.2457 143.687 14.1095 143.111 15.2613V11.8059H136.201V34.554H143.687V22.748C143.687 22.1721 143.687 21.8842 143.975 21.0203C144.263 20.4444 144.551 19.8685 144.839 19.2926C145.127 18.7167 145.703 18.4288 146.567 17.8529C147.143 17.5649 148.007 17.277 149.158 17.277C149.446 17.277 149.734 17.277 150.022 17.277C150.31 17.277 150.598 17.277 150.886 17.5649L151.174 11.23C150.886 11.23 150.886 11.23 150.598 11.23C150.022 11.23 149.734 11.23 149.446 11.23Z" fill="white"/>
<path d="M186.591 2.30359L178.241 25.0516L169.89 2.30359H161.828L174.21 34.554H181.984L194.366 2.30359H186.591Z" fill="white"/>
<path d="M198.11 20.4444C198.11 19.8685 198.398 19.2926 198.686 18.7167C198.974 18.1408 199.262 17.8529 199.837 17.277C200.413 16.989 200.701 16.7011 201.565 16.4131C202.141 16.1252 202.717 16.1252 203.581 16.1252C205.021 16.1252 206.172 16.4131 207.036 17.277C207.9 18.1408 208.188 19.0047 208.188 20.4444H198.11ZM211.355 14.3975C210.492 13.2457 209.052 12.3818 207.612 12.0939C206.172 11.518 204.733 11.23 203.005 11.23C201.277 11.23 199.55 11.518 198.11 12.0939C196.67 12.6698 195.23 13.5336 194.366 14.3975C193.215 15.5493 192.351 16.7011 191.775 18.1408C191.199 19.5806 190.911 21.3083 190.911 23.3239C190.911 25.3396 191.199 27.0673 191.775 28.507C192.351 29.9468 193.215 31.3865 194.366 32.2504C195.518 33.4022 196.958 33.9781 198.398 34.554C199.837 35.1299 201.565 35.4178 203.293 35.4178C205.596 35.4178 207.612 35.1299 209.34 34.266C211.068 33.4022 212.507 32.2504 213.659 30.8106L208.476 27.6432C207.9 28.2191 207.324 28.795 206.46 29.3709C205.596 29.9468 204.733 29.9468 203.581 29.9468C203.005 29.9468 202.141 29.9468 201.565 29.6588C200.989 29.3709 200.413 29.0829 199.837 28.795C199.262 28.507 198.974 27.9311 198.686 27.3552C198.398 26.7793 198.11 26.2034 198.11 25.6275H214.523C214.523 25.3396 214.523 25.0516 214.523 24.7637V23.3239C214.523 21.3083 214.235 19.5806 213.659 18.1408C213.083 16.7011 212.219 15.2613 211.355 14.3975Z" fill="white"/>
<path d="M237.847 14.1095C237.271 13.2457 236.407 12.6698 235.255 12.0939C234.103 11.518 232.952 11.23 231.224 11.23C230.36 11.23 229.784 11.23 228.92 11.518C228.344 11.8059 227.481 12.0939 226.905 12.3818C226.329 12.6698 225.753 13.2457 225.465 13.5336C224.889 14.1095 224.601 14.3975 224.313 14.9734V11.8059H217.114V34.554H224.601V22.1721C224.601 21.5962 224.601 21.0203 224.889 20.4444C225.177 19.8685 225.177 19.2926 225.753 19.0047C226.041 18.4288 226.617 18.1408 226.905 17.8529C227.481 17.5649 228.056 17.5649 228.632 17.5649C229.208 17.5649 229.784 17.5649 230.36 17.8529C230.936 18.1408 231.224 18.4288 231.512 19.0047C231.8 19.5806 231.8 19.8685 232.088 20.4444C232.088 21.0203 232.376 21.5962 232.376 22.1721V34.554H239.862V20.4444C239.862 19.2926 239.574 18.1408 239.287 16.989C238.999 15.8372 238.423 14.9734 237.847 14.1095Z" fill="white"/>
<path d="M253.396 5.75897H245.909V11.8059H242.166V17.277H245.909V26.7793C245.909 27.9311 245.909 29.0829 246.197 30.2347C246.485 31.0986 246.773 31.9624 247.637 32.8263C248.213 33.4022 249.077 33.9781 250.228 34.554C251.38 35.1299 252.532 35.1299 253.972 35.1299C254.836 35.1299 255.412 35.1299 256.275 34.8419C257.139 34.8419 257.715 34.554 258.291 34.266V28.795C258.003 28.795 257.715 29.0829 257.139 29.0829C256.851 29.0829 256.275 29.0829 255.987 29.0829C254.836 29.0829 254.26 28.795 253.684 28.2191C253.396 27.6432 253.108 26.7793 253.108 25.9155V17.277H258.579V11.8059H253.108L253.396 5.75897Z" fill="white"/>
<path d="M277.008 23.8999C277.008 25.3396 276.72 26.4914 275.856 27.3553C275.28 28.2191 274.128 28.795 272.977 28.795C272.401 28.795 271.825 28.795 271.249 28.5071C270.961 28.2191 270.385 27.9312 270.097 27.3553C269.809 26.7794 269.521 26.4914 269.521 25.9155C269.521 25.3396 269.521 24.7637 269.521 24.1878V11.806H262.034V25.9155C262.034 27.0673 262.322 28.2191 262.322 29.3709C262.61 30.5227 263.186 31.3866 263.762 32.2504C264.338 33.1143 265.202 33.6902 266.354 34.2661C267.505 34.842 268.657 35.1299 270.097 35.1299C270.961 35.1299 271.537 35.1299 272.401 34.842C272.977 34.554 273.84 34.2661 274.416 33.9781C274.992 33.6902 275.568 33.1143 275.856 32.8263C276.432 32.2504 276.72 31.9625 277.008 31.3866V34.554H284.207V11.806H276.72L277.008 23.8999Z" fill="white"/>
<path d="M302.348 11.2301C300.908 11.2301 299.756 11.518 298.604 12.3819C297.453 13.2457 296.589 14.1096 296.013 15.2614V11.806H288.814V34.554H296.301V22.7481C296.301 22.1722 296.301 21.8842 296.589 21.0204C296.877 20.4445 297.165 19.8686 297.453 19.2927C297.741 18.7168 298.316 18.4288 299.18 17.8529C299.756 17.565 300.62 17.277 301.772 17.277C302.06 17.277 302.348 17.277 302.636 17.277C302.924 17.277 303.212 17.277 303.5 17.565L303.787 10.9421C303.5 10.9421 303.5 10.9421 303.212 10.9421C302.924 11.2301 302.636 11.2301 302.348 11.2301Z" fill="white"/>
<path d="M312.138 20.4444C312.138 19.8685 312.426 19.2926 312.714 18.7167C313.002 18.1408 313.29 17.8529 313.866 17.277C314.441 16.989 314.729 16.7011 315.593 16.4131C316.169 16.1252 316.745 16.1252 317.609 16.1252C319.049 16.1252 320.2 16.4131 321.064 17.277C321.928 18.1408 322.216 19.0047 322.216 20.4444H312.138ZM325.384 14.3975C324.52 13.2457 323.08 12.3818 321.64 12.0939C320.2 11.518 318.761 11.23 317.033 11.23C315.305 11.23 313.578 11.518 312.138 12.0939C310.698 12.6698 309.258 13.5336 308.395 14.3975C307.243 15.5493 306.379 16.7011 305.803 18.1408C305.227 19.5806 304.939 21.3083 304.939 23.3239C304.939 25.3396 305.227 27.0673 305.803 28.507C306.379 29.9468 307.243 31.3865 308.395 32.2504C309.546 33.4022 310.986 33.9781 312.426 34.554C313.866 35.1299 315.593 35.4178 317.321 35.4178C319.625 35.4178 321.64 35.1299 323.368 34.266C325.096 33.4022 326.535 32.2504 327.687 30.8106L322.504 27.6432C321.928 28.2191 321.352 28.795 320.488 29.3709C319.625 29.9468 318.761 29.9468 317.609 29.9468C317.033 29.9468 316.169 29.9468 315.593 29.6588C315.017 29.3709 314.441 29.0829 313.866 28.795C313.29 28.507 313.002 27.9311 312.714 27.3552C312.426 26.7793 312.138 26.2034 312.138 25.6275H328.551C328.551 25.3396 328.551 25.0516 328.551 24.7637V23.3239C328.551 21.3083 328.263 19.5806 327.687 18.1408C327.111 16.7011 326.247 15.2613 325.384 14.3975Z" fill="white"/>
<path d="M348.132 22.4601C347.556 21.8842 346.692 21.5962 345.828 21.0203C344.964 20.7324 344.101 20.4444 343.237 20.1565C341.797 19.8685 340.645 19.5806 340.069 19.2926C339.493 19.0047 339.205 18.4288 339.205 17.8529C339.205 17.277 339.493 16.7011 340.069 16.4131C340.645 16.1252 341.221 16.1252 342.085 16.1252C342.949 16.1252 343.813 16.4131 344.676 16.7011C345.54 16.989 346.116 17.5649 346.692 18.1408L350.723 13.8216C349.572 12.6698 348.132 12.0939 346.692 11.518C344.964 10.9421 343.525 10.6541 341.797 10.6541C340.645 10.6541 339.493 10.9421 338.63 11.23C337.478 11.518 336.614 12.0939 335.462 12.6698C334.598 13.2457 333.734 14.1095 333.158 14.9734C332.583 15.8372 332.295 16.989 332.295 18.4288C332.295 19.5806 332.583 20.4444 332.871 21.3083C333.158 22.1721 333.734 22.748 334.31 23.3239C334.886 23.8998 335.75 24.1878 336.326 24.4757C337.19 24.7637 337.766 25.0516 338.63 25.3396C340.069 25.6275 341.221 25.9155 342.085 26.4914C342.949 26.7793 343.237 27.3552 343.237 27.9311C343.237 28.795 342.949 29.0829 342.373 29.3709C341.797 29.6588 341.221 29.9468 340.645 29.9468C339.493 29.9468 338.629 29.6588 337.478 29.0829C336.614 28.507 335.75 27.9311 334.886 27.3552L330.567 31.6745C331.719 32.8263 333.158 33.6901 334.886 34.266C336.614 34.8419 338.342 35.1299 340.357 35.1299C341.509 35.1299 342.661 35.1299 343.813 34.8419C344.964 34.554 346.116 34.266 346.98 33.4022C347.844 32.8263 348.708 31.9624 349.284 31.0986C349.86 30.2347 350.148 28.795 350.148 27.3552C350.148 26.2034 349.86 25.3396 349.572 24.4757C349.284 23.8998 348.708 23.036 348.132 22.4601Z" fill="white"/>
<path d="M368 7.77465C368 9.2144 367.424 10.3662 366.56 11.518C365.408 12.3819 364.257 12.9578 362.817 12.9578C361.953 12.9578 361.377 12.9578 360.801 12.6698C360.225 12.3819 359.649 12.0939 359.073 11.518C358.498 10.9421 358.21 10.6542 357.922 9.7903C357.634 9.2144 357.634 8.35055 357.634 7.77465C357.634 7.19875 357.634 6.3349 357.922 5.759C358.21 5.1831 358.498 4.6072 359.073 4.0313C359.649 3.4554 360.225 3.16745 360.801 2.8795C361.377 2.59155 362.241 2.59155 362.817 2.59155C364.257 2.59155 365.408 3.16745 366.56 4.0313C367.424 4.89515 368 6.3349 368 7.77465Z" fill="white"/>
</svg>
