<svg width="313" height="51" viewBox="0 0 313 51" fill="none" xmlns="http://www.w3.org/2000/svg">
<path d="M11.7777 0.0849352L1.81193 5.74728C1.47219 5.86053 1.47219 6.31351 1.81193 6.42676L25.1408 19.7899C25.3673 19.9031 25.707 19.9031 25.9335 19.7899L35.8992 14.1275C36.239 14.0143 36.239 13.5613 35.8992 13.4481L12.6836 0.0849352C12.3439 -0.0283117 12.1174 -0.0283117 11.7777 0.0849352Z" fill="white"/>
<path d="M38.3907 0.0848854L28.425 5.74723C28.0852 5.86048 28.0852 6.31346 28.425 6.42671L38.5039 12.3155C38.7304 12.4288 39.0702 12.4288 39.2967 12.3155L49.2624 6.6532C49.6021 6.53996 49.6021 6.08697 49.2624 5.97372L39.1834 0.198131C38.9569 -0.0283632 38.6172 -0.0283615 38.3907 0.0848854Z" fill="white"/>
<path d="M26.7263 22.8476V34.2856C26.7263 34.6253 27.0661 34.8518 27.4058 34.6253L37.4848 28.8497C37.598 28.7365 37.7113 28.6232 37.7113 28.51V16.7323C37.7113 16.3926 37.3715 16.1661 37.0318 16.3926L27.1793 22.0549C26.8396 22.2814 26.7263 22.5079 26.7263 22.8476Z" fill="white"/>
<path d="M40.3159 14.4673L50.2816 8.80498C50.5081 8.69173 50.9611 8.80498 50.9611 9.14472V35.871C50.9611 36.2107 50.8479 36.4372 50.5081 36.5505L27.2925 49.9136C27.066 50.0268 26.613 49.9136 26.613 49.5739V38.1359C26.613 37.7962 26.7263 37.5697 27.066 37.4564L39.5232 30.3219C39.7497 30.2086 39.9762 29.8689 39.9762 29.5292V15.2601C39.9762 14.9203 40.0894 14.6938 40.3159 14.4673Z" fill="white"/>
<path d="M24.4613 22.7343V34.512C24.4613 34.7385 24.2348 34.8517 24.0083 34.7385L11.7777 27.7172C11.5512 27.6039 11.0982 27.7172 11.0982 28.0569V41.873C11.0982 42.2128 10.7585 42.4393 10.4187 42.2128L0.452987 36.5504C0.226493 36.4372 0 36.0974 0 35.8709V9.03144C0 8.6917 0.339741 8.4652 0.679482 8.6917L24.0083 22.0548C24.2348 22.1681 24.4613 22.5078 24.4613 22.7343Z" fill="white"/>
<path d="M13.9294 31.5676L23.8951 37.3432C24.1216 37.4564 24.3481 37.7962 24.3481 38.0227V49.5739C24.3481 49.9136 24.0083 50.1401 23.6686 49.9136L13.7029 44.138C13.4764 44.0248 13.2499 43.685 13.2499 43.4585V32.0206C13.3631 31.6809 13.7029 31.4544 13.9294 31.5676Z" fill="white"/>
<path d="M89.5784 17.4117C89.5784 22.2813 86.2942 25.1125 82.3306 25.5655C80.9716 25.6787 80.0657 25.792 78.4802 25.792H74.5166V35.8709H69.194V9.03143H78.4802C80.0657 9.03143 81.0849 9.03143 82.3306 9.25793C86.4075 9.71091 89.5784 12.4288 89.5784 17.4117ZM83.9161 17.4117C83.9161 14.9203 82.5571 13.6746 80.7452 13.4481C80.1789 13.3348 79.3862 13.3348 78.367 13.3348H74.5166V21.4886H78.367C79.3862 21.4886 80.1789 21.4886 80.7452 21.3753C82.6704 21.0356 83.9161 19.9031 83.9161 17.4117Z" fill="white"/>
<path d="M104.187 14.807V19.1104C99.7704 18.7706 97.5055 20.8091 97.5055 26.3582V35.7577H92.1829V15.1467H97.5055V18.8839L99.0909 16.0527C100.11 15.1467 101.469 14.6937 102.602 14.6937C103.281 14.6937 103.734 14.6937 104.187 14.807Z" fill="white"/>
<path d="M126.497 25.4523C126.497 31.6808 122.646 36.324 115.851 36.324C109.057 36.324 105.206 31.6808 105.206 25.4523C105.206 19.2237 109.057 14.5806 115.851 14.5806C122.646 14.5806 126.497 19.2237 126.497 25.4523ZM120.947 25.4523C120.947 21.0356 119.022 18.3177 115.851 18.3177C112.68 18.3177 110.755 20.9224 110.755 25.4523C110.755 29.8689 112.68 32.5868 115.851 32.5868C119.022 32.4736 120.947 29.8689 120.947 25.4523Z" fill="white"/>
<path d="M136.123 28.3966V30.2085C136.236 32.247 137.029 32.7 139.973 32.4735V35.9841C138.727 36.2106 137.595 36.2106 136.462 36.2106C132.499 36.2106 131.027 34.8516 130.8 32.0205C130.687 31.1145 130.687 30.2085 130.687 29.0761V18.8838H127.629V15.3732H130.687V8.57837H136.009V15.3732H140.313V18.8838H136.009V28.3966H136.123Z" fill="white"/>
<path d="M163.075 25.4523C163.075 31.6808 159.225 36.324 152.43 36.324C145.635 36.324 141.785 31.6808 141.785 25.4523C141.785 19.2237 145.635 14.5806 152.43 14.5806C159.225 14.5806 163.075 19.2237 163.075 25.4523ZM157.64 25.4523C157.64 21.0356 155.714 18.3177 152.543 18.3177C149.373 18.3177 147.447 20.9224 147.447 25.4523C147.447 29.8689 149.373 32.5868 152.543 32.5868C155.601 32.4736 157.64 29.8689 157.64 25.4523Z" fill="white"/>
<path d="M184.706 22.621H179.496C179.043 19.6766 177.458 18.4309 175.193 18.4309C172.475 18.4309 170.55 20.5826 170.55 25.3389C170.55 30.435 172.475 32.5867 175.193 32.5867C177.231 32.5867 178.817 31.2278 179.383 28.6231H184.706C183.8 33.7192 180.063 36.3239 174.853 36.3239C169.191 36.3239 165.001 32.8132 165.001 25.6787C165.001 18.6574 169.644 14.6937 175.306 14.6937C180.855 14.5805 184.366 17.9779 184.706 22.621Z" fill="white"/>
<path d="M207.921 25.4523C207.921 31.6808 204.071 36.324 197.276 36.324C190.481 36.324 186.631 31.6808 186.631 25.4523C186.631 19.2237 190.481 14.5806 197.276 14.5806C204.071 14.5806 207.921 19.2237 207.921 25.4523ZM202.372 25.4523C202.372 21.0356 200.447 18.3177 197.276 18.3177C194.105 18.3177 192.18 20.9224 192.18 25.4523C192.18 29.8689 194.105 32.5868 197.276 32.5868C200.447 32.4736 202.372 29.8689 202.372 25.4523Z" fill="white"/>
<path d="M210.299 35.7577V8.46521H215.622V35.7577H210.299Z" fill="white"/>
<path d="M248.69 35.7577H229.438V8.46521H234.761V31.3411H248.69V35.7577Z" fill="white"/>
<path d="M263.073 32.7001L262.053 34.8518C260.581 35.871 258.882 36.2107 256.957 36.2107C253.447 36.2107 250.389 34.1723 250.389 30.2087C250.389 25.6788 254.239 23.0741 261.714 23.0741H263.073V22.6211C263.073 22.0549 263.073 21.3754 262.959 20.6959C262.846 19.2237 261.827 18.2045 259.788 18.2045C257.637 18.2045 256.504 19.4502 256.391 21.7151H251.182C251.295 17.072 255.145 14.4673 260.015 14.4673C265.79 14.4673 267.942 16.9588 268.282 20.5827C268.395 21.6019 268.395 22.6211 268.395 23.7536V30.4352C268.395 32.0206 268.508 33.3796 268.735 35.6445H263.526L263.073 32.7001ZM263.073 28.1702V26.4715C258.769 26.1318 255.938 27.151 255.938 29.8689C255.938 31.6809 257.184 32.5868 259.109 32.5868C261.261 32.4736 263.073 31.0014 263.073 28.1702Z" fill="white"/>
<path d="M293.762 25.1125C293.762 32.5868 289.233 36.3239 283.91 36.3239C282.211 36.3239 280.173 35.871 279.04 35.1915L277.681 33.0398V35.7577H272.359V8.46521H277.681V18.3177L279.267 16.0527C280.399 15.1468 282.551 14.5805 284.589 14.5805C290.365 14.5805 293.762 18.9972 293.762 25.1125ZM288.213 25.4522C288.213 21.2621 286.175 18.4309 283.004 18.4309C280.06 18.4309 277.681 20.2429 277.681 25.2257V26.245C277.681 30.8881 280.399 32.5868 282.777 32.5868C285.948 32.4736 288.213 30.2086 288.213 25.4522Z" fill="white"/>
<path d="M312.561 21.1489H307.239C306.899 19.2237 305.88 18.2045 304.068 18.2045C302.482 18.2045 301.576 19.1105 301.576 20.3562C301.576 21.9416 302.822 22.7344 306.22 23.5271C310.41 24.6596 312.901 26.3583 312.901 30.0954C312.901 34.2856 309.164 36.2107 304.408 36.2107C299.425 36.2107 295.914 34.0591 295.348 29.4159H300.671C301.124 31.6809 302.596 32.7001 304.521 32.7001C306.22 32.7001 307.579 32.0206 307.579 30.4352C307.579 28.8497 306.22 27.9437 302.709 27.0378C298.859 26.0185 296.254 24.4331 296.254 20.8092C296.254 16.8455 299.538 14.4673 304.408 14.4673C309.277 14.5806 312.108 17.4118 312.561 21.1489Z" fill="white"/>
</svg>
