<svg width="60" height="49" viewBox="0 0 60 49" fill="none" xmlns="http://www.w3.org/2000/svg">
<path d="M53.8326 12.2117C53.8707 12.7476 53.8707 13.2836 53.8707 13.8195C53.8707 30.1655 41.4977 49 18.8833 49C11.9163 49 5.4442 46.971 0 43.4493C0.989887 43.564 1.94157 43.6023 2.96954 43.6023C8.7182 43.6023 14.0102 41.6501 18.2361 38.3196C12.83 38.2047 8.29949 34.6446 6.73854 29.7445C7.50003 29.8593 8.2614 29.9359 9.06097 29.9359C10.165 29.9359 11.2691 29.7827 12.297 29.5149C6.66249 28.3663 2.43645 23.3898 2.43645 17.3797V17.2266C4.07345 18.1454 5.97717 18.7196 7.9948 18.796C4.6826 16.5757 2.51263 12.7859 2.51263 8.49835C2.51263 6.20152 3.12165 4.09605 4.18771 2.25854C10.2411 9.76166 19.3401 14.6616 29.5431 15.1976C29.3528 14.2788 29.2385 13.3219 29.2385 12.3649C29.2385 5.55072 34.7208 0 41.5355 0C45.0761 0 48.2741 1.49296 50.5203 3.90469C53.2994 3.36877 55.9644 2.33513 58.3249 0.918757C57.4111 3.78992 55.4695 6.20164 52.9188 7.73278C55.3935 7.46494 57.7919 6.77573 60 5.81879C58.3252 8.26869 56.2311 10.4506 53.8326 12.2117Z" fill="white"/>
</svg>
